<svg aria-hidden="true" style="position: absolute; width: 0; height: 0; overflow: hidden;" version="1.1" xmlns="http://www.w3.org/2000/svg" xmlns:xlink="http://www.w3.org/1999/xlink">
<defs>
<svg fill="currentColor" viewBox="0 0 256 256" id="icon-logo" xmlns="http://www.w3.org/2000/svg"><g id="SVGRepo_bgCarrier" stroke-width="0"></g><g id="SVGRepo_tracerCarrier" stroke-linecap="round" stroke-linejoin="round"></g><g id="SVGRepo_iconCarrier"> <path d="M233.46,97.46a36,36,0,0,0-50.92-50.92h0a36.18,36.18,0,0,0-4.12,5l-22.54-6.14A36,36,0,0,0,94.54,22.54h0a36.07,36.07,0,0,0-7.79,39.24L57.2,88.38a36.06,36.06,0,0,0-42.66,6.16h0a36,36,0,0,0,45.73,55.2l65.27,47.87a36,36,0,1,0,59.92-15.07,37.69,37.69,0,0,0-2.85-2.55L208,108A35.87,35.87,0,0,0,233.46,97.46Zm-93.73,80.8L74.46,130.39a36.19,36.19,0,0,0-1.21-24.17l29.55-26.6a35.92,35.92,0,0,0,46.78-11.11l22.54,6.14a35.88,35.88,0,0,0,10.42,22.81,37.69,37.69,0,0,0,2.85,2.55L160,172A35.89,35.89,0,0,0,139.73,178.26ZM216.49,63.51a12,12,0,1,1-17,0h0A12,12,0,0,1,216.49,63.51Zm-105-24a12,12,0,1,1,0,17,12,12,0,0,1,0-17Zm-80,89a12,12,0,0,1,0-17h0a12,12,0,1,1,0,17Zm137,88a12,12,0,0,1-17-17h0a12,12,0,0,1,17,17Z"></path> </g></svg>
<symbol id="icon-audio" viewBox="0 0 52 32">
<path fill="#d9d9d9" style="fill: var(--color1, #d9d9d9)" d="M11.338 6.076v0c0.797 0 1.443 0.646 1.443 1.443v16.557c0 0.797-0.646 1.443-1.443 1.443v0c-0.797 0-1.443-0.646-1.443-1.443v-16.557c0-0.797 0.646-1.443 1.443-1.443z"></path>
<path fill="#d9d9d9" style="fill: var(--color1, #d9d9d9)" d="M16.286 4.861v0c0.797 0 1.443 0.646 1.443 1.443v19.392c0 0.797-0.646 1.443-1.443 1.443v0c-0.797 0-1.443-0.646-1.443-1.443v-19.392c0-0.797 0.646-1.443 1.443-1.443z"></path>
<path fill="#d9d9d9" style="fill: var(--color1, #d9d9d9)" d="M6.391 10.532v0c0.797 0 1.443 0.646 1.443 1.443v8.051c0 0.797-0.646 1.443-1.443 1.443v0c-0.797 0-1.443-0.646-1.443-1.443v-8.051c0-0.797 0.646-1.443 1.443-1.443z"></path>
<path fill="#d9d9d9" style="fill: var(--color1, #d9d9d9)" d="M1.443 12.962v0c0.797 0 1.443 0.646 1.443 1.443v2.785c0 0.797-0.646 1.443-1.443 1.443v0c-0.797 0-1.443-0.646-1.443-1.443v-2.785c0-0.797 0.646-1.443 1.443-1.443z"></path>
<path fill="#d9d9d9" style="fill: var(--color1, #d9d9d9)" d="M50.92 12.962v0c0.797 0 1.443 0.646 1.443 1.443v2.785c0 0.797-0.646 1.443-1.443 1.443v0c-0.797 0-1.443-0.646-1.443-1.443v-2.785c0-0.797 0.646-1.443 1.443-1.443z"></path>
<path fill="#d9d9d9" style="fill: var(--color1, #d9d9d9)" d="M31.13 8.911v0c0.797 0 1.443 0.646 1.443 1.443v11.291c0 0.797-0.646 1.443-1.443 1.443v0c-0.797 0-1.443-0.646-1.443-1.443v-11.291c0-0.797 0.646-1.443 1.443-1.443z"></path>
<path fill="#d9d9d9" style="fill: var(--color1, #d9d9d9)" d="M36.077 3.24v0c0.797 0 1.443 0.646 1.443 1.443v22.228c0 0.797-0.646 1.443-1.443 1.443v0c-0.797 0-1.443-0.646-1.443-1.443v-22.228c0-0.797 0.646-1.443 1.443-1.443z"></path>
<path fill="#d9d9d9" style="fill: var(--color1, #d9d9d9)" d="M41.025 4.861v0c0.797 0 1.443 0.646 1.443 1.443v19.392c0 0.797-0.646 1.443-1.443 1.443v0c-0.797 0-1.443-0.646-1.443-1.443v-19.392c0-0.797 0.646-1.443 1.443-1.443z"></path>
<path fill="#d9d9d9" style="fill: var(--color1, #d9d9d9)" d="M45.973 10.532v0c0.797 0 1.443 0.646 1.443 1.443v8.051c0 0.797-0.646 1.443-1.443 1.443v0c-0.797 0-1.443-0.646-1.443-1.443v-8.051c0-0.797 0.646-1.443 1.443-1.443z"></path>
<path fill="#d9d9d9" style="fill: var(--color1, #d9d9d9)" d="M21.234 7.696v0c0.797 0 1.443 0.646 1.443 1.443v13.721c0 0.797-0.646 1.443-1.443 1.443v0c-0.797 0-1.443-0.646-1.443-1.443v-13.721c0-0.797 0.646-1.443 1.443-1.443z"></path>
<path fill="#d9d9d9" style="fill: var(--color1, #d9d9d9)" d="M26.182 0v0c0.797 0 1.443 0.646 1.443 1.443v29.114c0 0.797-0.646 1.443-1.443 1.443v0c-0.797 0-1.443-0.646-1.443-1.443v-29.114c0-0.797 0.646-1.443 1.443-1.443z"></path>
</symbol>
</defs>
</svg>
